# xmcd
#
# Track frame offsets:
#	150
#	19645
#	35853
#	49964
#	64438
#	78102
#	92786
#	109932
#	124217
#	145585
#	161957
#	179265
#	190892
#	207838
#	224583
#	243155
#	258662
#	272787
#	287977
#	304099
#	318858
#	335046
#
# Disc length: 4669 seconds
#
# Revision: 0
# Processed by: cddbd v1.5.2PL0 Copyright (c) Steve Scherf et al.
# Submitted via: dBpowerAMP V4.0
#
DISCID=59123b16
DTITLE=Various Artist - ERG Nu Country Traxx Vol 170
DYEAR=2008
DGENRE=Country
TTITLE0=Carrie Underwood - Just A Dream
TTITLE1=Toby Keith - She Never Cried In Front Of Me
TTITLE2=Deric Ruttan - Lovin' You Is Killin' Me
TTITLE3=Lee Ann Womack - Last Call
TTITLE4=Lady Antebellum - Looking for A Good Time
TTITLE5=Randy Owen - Like I Never Broke Her Heart
TTITLE6=Doc Walker - Thats All
TTITLE7=Gretchen Wilson - Dont Do Me No Good
TTITLE8=Alan Jackson - Good Time (Summer Fun Too Hot To Fish 0
TTITLE9=Pat Green - Let Me
TTITLE10=Little Big Town - Fine Line
TTITLE11=Justin Moore - Back That Thing Up
TTITLE12=Kid Rock - All Summer Long
TTITLE13=Lance Miller - Old Back In The New School
TTITLE14=Trisha Yearwood - They Call It Falling For A Reason
TTITLE15=Miranda Lambert - More Like Her
TTITLE16=Jaydee Bixby - Old Fashioned Girl
TTITLE17=Jewel - I Do
TTITLE18=Lee Brice - Upper Middle Class White Trash
TTITLE19=Carolina Rain - American Radio
TTITLE20=Crossin Dixon - I Love My Old Bird Dog (& I Love You)
TTITLE21=One Flew South - My Kind Of Beautiful
EXTD=
EXTT0=
EXTT1=
EXTT2=
EXTT3=
EXTT4=
EXTT5=
EXTT6=
EXTT7=
EXTT8=
EXTT9=
EXTT10=
EXTT11=
EXTT12=
EXTT13=
EXTT14=
EXTT15=
EXTT16=
EXTT17=
EXTT18=
EXTT19=
EXTT20=
EXTT21=
PLAYORDER=
